Coordinates
version=1
nRows=11
nColumns=36
inDegrees=yes

Units are S.I. units (second, meters, Newtons, ...)
If the header above contains a line with 'inDegrees', this indicates whether rotational values are in degrees (yes) or radians (no).

endheader
time	pelvis_tilt	pelvis_list	pelvis_rotation	pelvis_tx	pelvis_ty	pelvis_tz	hip_flexion_r	hip_adduction_r	hip_rotation_r	knee_angle_r	knee_angle_r_beta	ankle_angle_r	subtalar_angle_r	mtp_angle_r	hip_flexion_l	hip_adduction_l	hip_rotation_l	knee_angle_l	knee_angle_l_beta	ankle_angle_l	subtalar_angle_l	mtp_angle_l	lumbar_extension	lumbar_bending	lumbar_rotation	arm_flex_r	arm_add_r	arm_rot_r	elbow_flex_r	pro_sup_r	arm_flex_l	arm_add_l	arm_rot_l	elbow_flex_l	pro_sup_l
      4.39583330	     -1.35752921	     -1.29200750	      2.20960256	      0.36962099	      0.98554497	     -0.03142158	     -2.13803616	     -1.95912575	     -1.37963362	      5.76040335	      0.10053800	      6.15282102	    -13.59892043	     -7.49999987	      1.71040262	     -7.58953108	      9.40326944	      7.96072614	      0.13894088	      6.14960661	    -10.77178861	     -7.49999987	     -2.27985871	      0.82224604	      0.81002674	      3.47001595	     -5.98836117	     22.72084540	     29.67462241	     84.87723020	    185.68853850	   -171.64613522	    209.07226702	     29.67138062	     93.37225624
      4.40000000	     -1.38231001	     -1.24513993	      2.17003560	      0.36965115	      0.98536846	     -0.03135401	     -2.01333875	     -2.07372567	     -1.39566405	      5.85218932	      0.10213997	      6.12794749	    -13.73098759	     -7.49999987	      1.72101779	     -7.49940925	      9.31034232	      7.85010158	      0.13701012	      6.16203153	    -10.73863600	     -7.49999987	     -2.30679303	      0.85497780	      0.54744056	      3.77332448	     -6.09669774	     23.28922430	     29.62367617	     83.85135942	    185.65421643	   -171.73820323	    208.71059103	     29.75917755	     92.29279081
      4.40416670	     -1.48660140	     -1.19434306	      2.13492533	      0.36966429	      0.98564860	     -0.03139867	     -1.82054555	     -2.19308292	     -1.42201125	      5.93956600	      0.10366498	      6.16541508	    -13.74345245	     -7.49999987	      1.84415743	     -7.40003306	      9.29775066	      7.82828282	      0.13662931	      6.12200442	    -10.72751442	     -7.49999987	     -2.19675943	      0.81349987	      0.60019240	      3.80408827	     -6.20556159	     23.65643996	     29.59837463	     83.66975018	    185.77327975	   -171.70892363	    209.35454172	     29.79130966	     92.24978659
      4.40833330	     -1.51699855	     -1.17856573	      2.11953062	      0.36981134	      0.98558835	     -0.03123575	     -1.74268968	     -2.24676008	     -1.42835076	      6.01885849	      0.10504890	      6.16138860	    -13.87790984	     -7.49999987	      1.89299974	     -7.35926369	      9.23925283	      7.82728901	      0.13661196	      6.23674652	    -10.61927887	     -7.49999987	     -2.19945619	      0.84017907	      0.51458747	      3.88853135	     -6.19065959	     23.69746418	     29.58531986	     82.79542927	    185.65050949	   -171.83070304	    208.67079303	     29.96303672	     91.30113070
      4.41250000	     -1.64778071	     -1.13781859	      2.12325700	      0.36965514	      0.98561286	     -0.03130125	     -1.62234283	     -2.32824214	     -1.38915024	      5.95952710	      0.10401337	      6.13803239	    -13.85864448	     -7.49999987	      2.07171748	     -7.27645702	      9.24919249	      7.85041030	      0.13701551	      6.18465324	    -10.62998054	     -7.49999987	     -2.02795343	      0.81828560	      0.66711507	      3.70525619	     -6.24788092	     22.80170750	     29.78332312	     85.65604466	    185.81987932	   -171.77051353	    209.10407610	     29.96299888	     94.08594630
      4.41666670	     -1.70588553	     -1.12153051	      2.15931977	      0.36982661	      0.98860512	     -0.03135282	     -1.56133587	     -2.38639980	     -1.43977552	      5.95188480	      0.10387999	      6.02350592	    -13.80335985	     -7.49999987	      2.15965629	     -7.23239045	      9.31966090	      7.84959457	      0.13700127	      6.05570483	    -10.72308777	     -7.49999987	     -1.97631408	      0.86397775	      0.57407424	      3.81067748	     -6.32387857	     23.26462162	     29.66633002	     85.37163274	    185.74186875	   -171.81899863	    208.81311887	     30.02177760	     93.81879305
      4.42083330	     -1.65320200	     -1.10728316	      2.20129132	      0.36975762	      0.98587408	     -0.03122237	     -1.60958938	     -2.42212979	     -1.47326271	      5.96922452	      0.10418262	      5.98980198	    -13.77506577	     -7.49999987	      2.13038027	     -7.21080624	      9.22553423	      7.87028346	      0.13736236	      6.25877720	    -10.37014156	     -7.49999987	     -2.12267714	      0.90178347	      0.37406677	      3.96031857	     -6.27696580	     23.36873251	     29.60391471	     83.78611939	    185.54076315	   -171.90538683	    207.66815660	     30.26054881	     92.12066832
      4.42500000	     -1.78337819	     -1.09543310	      2.23407866	      0.36992401	      0.98563455	     -0.03113802	     -1.42949130	     -2.44826147	     -1.49178341	      6.05011652	      0.10559445	      5.92708540	    -13.83112206	     -7.49999987	      2.30171763	     -7.18104857	      9.34716457	      7.89757691	      0.13783872	      6.11440201	    -10.58548785	     -7.49999987	     -1.95890544	      0.90696852	      0.72542302	      3.68390255	     -6.32373512	     22.62575037	     29.77773154	     85.75209735	    185.88618393	   -171.80762382	    209.16198321	     30.05129101	     94.08624087
      4.42916670	     -1.80821713	     -1.11426435	      2.24624713	      0.36985666	      0.98600784	     -0.03114867	     -1.36947559	     -2.43392104	     -1.47627269	      6.13476401	      0.10707183	      5.91682460	    -13.84552063	     -7.49999987	      2.35122018	     -7.20532711	      9.37166256	      7.91414415	      0.13812787	      6.16210938	    -10.52079232	     -7.49999987	     -1.94727953	      0.94559853	      0.67579088	      3.68949049	     -6.35568304	     22.68254655	     29.83437340	     86.17071459	    185.85065727	   -171.84101944	    209.03810459	     30.03588394	     94.20697322
      4.43333330	     -1.82467988	     -1.09412547	      2.26969583	      0.37404591	      0.98595460	     -0.02708263	     -1.38820560	     -2.41710292	     -1.47449782	      6.14376492	      0.10722893	      5.91467713	    -13.84312413	     -7.49999987	      2.33307907	     -7.23421265	      9.37215088	      7.92283378	      0.13827954	      6.16071132	    -10.52097034	     -7.49999987	     -1.94801431	      0.94644296	      0.67504133	      3.68816542	     -6.35903305	     22.68250491	     29.83356702	     86.17080087	    185.84840159	   -171.84483650	    209.03858506	     30.03539411	     94.20687142
      4.43750000	     -1.79839955	     -1.17191502	      2.26280090	      0.36978564	      0.98610248	     -0.03123977	     -1.41668935	     -2.33517279	     -1.46761398	      6.19284932	      0.10808561	      5.90238355	    -13.83296355	     -7.49999987	      2.28763286	     -7.34607034	      9.35925164	      7.90281575	      0.13793015	      6.16126431	    -10.51473156	     -7.49999987	     -1.89570867	      0.91726870	      0.71080833	      3.60785724	     -6.30495991	     22.70341583	     29.82678759	     86.17584262	    185.76025496	   -171.79252659	    209.03695030	     30.00703081	     94.20598879
